
<global>
amp_veltrack=0
ampeg_attack=0.01
ampeg_release=0.25
</global>

<group>
group_label=PP
lpc_hicc1=42
lpc_locc1=0

<region>
hikey=a#3
hivel=42
lokey=a3
loop_end=232536
loop_mode=loop_continuous
loop_start=74678
loop_xfade=20038
lovel=0
offset=1161
pitch_keycenter=a#3
sample=Tenor_trills_maj_PP_A#3.opus
</region>

<region>
hikey=a#4
hivel=42
lokey=a4
loop_end=243749
loop_mode=loop_continuous
loop_start=78279
loop_xfade=21004
lovel=0
offset=737
pitch_keycenter=a#4
sample=Tenor_trills_maj_PP_A#4.opus
</region>

<region>
hikey=c4
hivel=42
lokey=b3
loop_end=245344
loop_mode=loop_continuous
loop_start=78791
loop_xfade=21142
lovel=0
offset=4555
pitch_keycenter=c4
sample=Tenor_trills_maj_PP_C4.opus
</region>

<region>
hikey=c5
hivel=42
lokey=b4
loop_end=239420
loop_mode=loop_continuous
loop_start=76889
loop_xfade=20631
lovel=0
offset=252
pitch_keycenter=c5
sample=Tenor_trills_maj_PP_C5.opus
</region>

<region>
hikey=d4
hivel=42
lokey=c#4
loop_end=240330
loop_mode=loop_continuous
loop_start=77181
loop_xfade=20710
lovel=0
offset=6808
pitch_keycenter=d4
sample=Tenor_trills_maj_PP_D4.opus
</region>

<region>
hikey=F5
hivel=42
lokey=c#5
loop_end=234269
loop_mode=loop_continuous
loop_start=75234
loop_xfade=20188
lovel=0
offset=1545
pitch_keycenter=D5
sample=Tenor_trills_maj_PP_D5.opus
</region>

<region>
hikey=e4
hivel=42
lokey=d#4
loop_end=239792
loop_mode=loop_continuous
loop_start=77008
loop_xfade=20663
lovel=0
offset=4556
pitch_keycenter=e4
sample=Tenor_trills_maj_PP_E4.opus
</region>

<region>
hikey=f#4
hivel=42
lokey=f4
loop_end=239809
loop_mode=loop_continuous
loop_start=77014
loop_xfade=20665
lovel=0
offset=2350
pitch_keycenter=f#4
sample=Tenor_trills_maj_PP_F#4.opus
</region>

<region>
hikey=g#4
hivel=42
lokey=g4
loop_end=241284
loop_mode=loop_continuous
loop_start=77487
loop_xfade=20792
lovel=0
offset=5787
pitch_keycenter=g#4
sample=Tenor_trills_maj_PP_G#4.opus
</region>

<region>
hikey=a#2
hivel=42
lokey=a2
loop_end=243068
loop_mode=loop_continuous
loop_start=78060
loop_xfade=20946
lovel=0
offset=8893
pitch_keycenter=a#2
sample=Tenor_trills_maj_PP_A#2.opus
</region>

<region>
hikey=c3
hivel=42
lokey=b2
loop_end=246466
loop_mode=loop_continuous
loop_start=79152
loop_xfade=21238
lovel=0
offset=5313
pitch_keycenter=c3
sample=Tenor_trills_maj_PP_C3.opus
</region>

<region>
hikey=d3
hivel=42
lokey=c#3
loop_end=243855
loop_mode=loop_continuous
loop_start=78313
loop_xfade=21014
lovel=0
offset=4039
pitch_keycenter=d3
sample=Tenor_trills_maj_PP_D3.opus
</region>

<region>
hikey=e3
hivel=42
lokey=d#3
loop_end=245351
loop_mode=loop_continuous
loop_start=78793
loop_xfade=21142
lovel=0
offset=3842
pitch_keycenter=e3
sample=Tenor_trills_maj_PP_E3.opus
</region>

<region>
hikey=f#3
hivel=42
lokey=f3
loop_end=243951
loop_mode=loop_continuous
loop_start=78344
loop_xfade=21022
lovel=0
offset=2693
pitch_keycenter=f#3
sample=Tenor_trills_maj_PP_F#3.opus
</region>

<region>
hivel=42
key=g#2
loop_end=238875
loop_mode=loop_continuous
loop_start=76714
loop_xfade=20584
lovel=0
offset=14883
sample=Tenor_trills_maj_PP_G#2.opus
</region>

<region>
hikey=g#3
hivel=42
lokey=g3
loop_end=239328
loop_mode=loop_continuous
loop_start=76859
loop_xfade=20623
lovel=0
offset=4554
pitch_keycenter=g#3
sample=Tenor_trills_maj_PP_G#3.opus
</region>
</group>

<group>
group_label=MF
lpc_hicc1=84
lpc_locc1=43

<region>
hikey=a#4
hivel=84
lokey=a4
loop_end=237628
loop_mode=loop_continuous
loop_start=76313
loop_xfade=20477
lovel=43
offset=756
pitch_keycenter=a#4
sample=Tenor_trills_maj_MF_A#4.opus
</region>

<region>
hikey=c4
hivel=84
lokey=b3
loop_end=245608
loop_mode=loop_continuous
loop_start=78876
loop_xfade=21165
lovel=43
offset=5280
pitch_keycenter=c4
sample=Tenor_trills_maj_MF_C4.opus
</region>

<region>
hikey=c5
hivel=84
lokey=b4
loop_end=242728
loop_mode=loop_continuous
loop_start=77951
loop_xfade=20916
lovel=43
offset=1027
pitch_keycenter=c5
sample=Tenor_trills_maj_MF_C5.opus
</region>

<region>
hikey=d4
hivel=84
lokey=c#4
loop_end=242981
loop_mode=loop_continuous
loop_start=78032
loop_xfade=20938
lovel=43
offset=3597
pitch_keycenter=d4
sample=Tenor_trills_maj_MF_D4.opus
</region>

<region>
hikey=F5
hivel=84
lokey=c#5
loop_end=215185
loop_mode=loop_continuous
loop_start=69106
loop_xfade=18543
lovel=43
offset=5666
pitch_keycenter=D5
sample=Tenor_trills_maj_MF_D5.opus
</region>

<region>
hikey=e4
hivel=84
lokey=d#4
loop_end=243605
loop_mode=loop_continuous
loop_start=78233
loop_xfade=20992
lovel=43
offset=1813
pitch_keycenter=e4
sample=Tenor_trills_maj_MF_E4.opus
</region>

<region>
hikey=f#4
hivel=84
lokey=f4
loop_end=244603
loop_mode=loop_continuous
loop_start=78553
loop_xfade=21078
lovel=43
offset=2829
pitch_keycenter=f#4
sample=Tenor_trills_maj_MF_F#4.opus
</region>

<region>
hikey=g#4
hivel=84
lokey=g4
loop_end=245367
loop_mode=loop_continuous
loop_start=78799
loop_xfade=21144
lovel=43
offset=3662
pitch_keycenter=g#4
sample=Tenor_trills_maj_MF_G#4.opus
</region>

<region>
hikey=a#2
hivel=84
lokey=a2
loop_end=247824
loop_mode=loop_continuous
loop_start=79588
loop_xfade=21355
lovel=43
offset=2176
pitch_keycenter=a#2
sample=Tenor_trills_maj_MF_A#2.opus
</region>

<region>
hikey=a#3
hivel=84
lokey=a3
loop_end=244009
loop_mode=loop_continuous
loop_start=78362
loop_xfade=21027
lovel=43
offset=946
pitch_keycenter=a#3
sample=Tenor_trills_maj_MF_A#3.opus
</region>

<region>
hikey=c3
hivel=84
lokey=b2
loop_end=243054
loop_mode=loop_continuous
loop_start=78056
loop_xfade=20944
lovel=43
offset=3739
pitch_keycenter=c3
sample=Tenor_trills_maj_MF_C3.opus
</region>

<region>
hikey=d3
hivel=84
lokey=c#3
loop_end=232933
loop_mode=loop_continuous
loop_start=74805
loop_xfade=20072
lovel=43
offset=2478
pitch_keycenter=d3
sample=Tenor_trills_maj_MF_D3.opus
</region>

<region>
hikey=e3
hivel=84
lokey=d#3
loop_end=243724
loop_mode=loop_continuous
loop_start=78271
loop_xfade=21002
lovel=43
offset=3630
pitch_keycenter=e3
sample=Tenor_trills_maj_MF_E3.opus
</region>

<region>
hikey=f#3
hivel=84
lokey=f3
loop_end=243478
loop_mode=loop_continuous
loop_start=78192
loop_xfade=20981
lovel=43
offset=2897
pitch_keycenter=f#3
sample=Tenor_trills_maj_MF_F#3.opus
</region>

<region>
hivel=84
key=g#2
loop_end=226329
loop_mode=loop_continuous
loop_start=72685
loop_xfade=19503
lovel=43
offset=3673
sample=Tenor_trills_maj_MF_G#2.opus
</region>

<region>
hikey=g#3
hivel=84
lokey=g3
loop_end=239984
loop_mode=loop_continuous
loop_start=77070
loop_xfade=20680
lovel=43
offset=4189
pitch_keycenter=g#3
sample=Tenor_trills_maj_MF_G#3.opus
</region>
</group>

<group>
group_label=FF
lpc_hicc1=127
lpc_locc1=85

<region>
hikey=a#3
hivel=127
lokey=a3
loop_end=244709
loop_mode=loop_continuous
loop_start=78587
loop_xfade=21087
lovel=85
offset=937
pitch_keycenter=a#3
sample=Tenor_trills_maj_FF_A#3.opus
</region>

<region>
hikey=a#4
hivel=127
lokey=a4
loop_end=241778
loop_mode=loop_continuous
loop_start=77646
loop_xfade=20835
lovel=85
offset=38
pitch_keycenter=a#4
sample=Tenor_trills_maj_FF_A#4.opus
</region>

<region>
hikey=c3
hivel=127
lokey=b2
loop_end=244171
loop_mode=loop_continuous
loop_start=78414
loop_xfade=21041
lovel=85
offset=4446
pitch_keycenter=c3
sample=Tenor_trills_maj_FF_C3.opus
</region>

<region>
hikey=c4
hivel=127
lokey=b3
loop_end=243858
loop_mode=loop_continuous
loop_start=78314
loop_xfade=21014
lovel=85
offset=3103
pitch_keycenter=c4
sample=Tenor_trills_maj_FF_C4.opus
</region>

<region>
hikey=c5
hivel=127
lokey=b4
loop_end=239517
loop_mode=loop_continuous
loop_start=76920
loop_xfade=20640
lovel=85
offset=155
pitch_keycenter=c5
sample=Tenor_trills_maj_FF_C5.opus
</region>

<region>
hikey=d3
hivel=127
lokey=c#3
loop_end=243824
loop_mode=loop_continuous
loop_start=78303
loop_xfade=21011
lovel=85
offset=4440
pitch_keycenter=d3
sample=Tenor_trills_maj_FF_D3.opus
</region>

<region>
hikey=d4
hivel=127
lokey=c#4
loop_end=244645
loop_mode=loop_continuous
loop_start=78567
loop_xfade=21082
lovel=85
offset=3183
pitch_keycenter=d4
sample=Tenor_trills_maj_FF_D4.opus
</region>

<region>
hikey=F5
hivel=127
lokey=c#5
loop_end=242456
loop_mode=loop_continuous
loop_start=77864
loop_xfade=20893
lovel=85
offset=1528
pitch_keycenter=D5
sample=Tenor_trills_maj_FF_D5.opus
</region>

<region>
hikey=e3
hivel=127
lokey=d#3
loop_end=236851
loop_mode=loop_continuous
loop_start=76064
loop_xfade=20410
lovel=85
offset=3526
pitch_keycenter=e3
sample=Tenor_trills_maj_FF_E3.opus
</region>

<region>
hikey=e4
hivel=127
lokey=d#4
loop_end=241347
loop_mode=loop_continuous
loop_start=77508
loop_xfade=20797
lovel=85
offset=1865
pitch_keycenter=e4
sample=Tenor_trills_maj_FF_E4.opus
</region>

<region>
hikey=f#3
hivel=127
lokey=f3
loop_end=248714
loop_mode=loop_continuous
loop_start=79874
loop_xfade=21432
lovel=85
offset=3632
pitch_keycenter=f#3
sample=Tenor_trills_maj_FF_F#3.opus
</region>

<region>
hikey=f#4
hivel=127
lokey=f4
loop_end=240538
loop_mode=loop_continuous
loop_start=77248
loop_xfade=20728
lovel=85
offset=3558
pitch_keycenter=f#4
sample=Tenor_trills_maj_FF_F#4.opus
</region>

<region>
hikey=g#3
hivel=127
lokey=g3
loop_end=237834
loop_mode=loop_continuous
loop_start=76379
loop_xfade=20495
lovel=85
offset=3177
pitch_keycenter=g#3
sample=Tenor_trills_maj_FF_G#3.opus
</region>

<region>
hikey=g#4
hivel=127
lokey=g4
loop_end=238895
loop_mode=loop_continuous
loop_start=76720
loop_xfade=20586
lovel=85
offset=446
pitch_keycenter=g#4
sample=Tenor_trills_maj_FF_G#4.opus
</region>

<region>
hikey=a#2
hivel=127
lokey=a2
loop_end=245179
loop_mode=loop_continuous
loop_start=78738
loop_xfade=21128
lovel=85
offset=3340
pitch_keycenter=a#2
sample=Tenor_trills_maj_FF_A#2.opus
</region>

<region>
hivel=127
key=g#2
loop_end=225995
loop_mode=loop_continuous
loop_start=72577
loop_xfade=19474
lovel=85
offset=5754
sample=Tenor_trills_maj_FF_G#2.opus
</region>
</group>